# xmcd
#
# Track frame offsets:
#	150
#	21042
#	38661
#	52653
#	72935
#	80099
#	101021
#	121196
#	140976
#	158157
#	176268
#	195580
#
# Disc length: 2757 seconds
#
# Revision: 0
# Processed by: cddbd v1.5.2PL0 Copyright (c) Steve Scherf et al.
# Submitted via: EZCDAudioConverter 1.0.6.1
#
DISCID=980ac30c
DTITLE=Jon Shain - Ordinary Cats
DYEAR=2013
DGENRE=Blues
TTITLE0=Ordinary Cats
TTITLE1=Cut Out Bin
TTITLE2=Level It Out
TTITLE3=Soldiers Pay
TTITLE4=Soldiers Reel
TTITLE5=Station Master
TTITLE6=Sarah Frost
TTITLE7=If You Ever Flew Away
TTITLE8=Decompression
TTITLE9=You Cannot Hide Your Heart From The Band
TTITLE10=Luckier Than Most
TTITLE11=A Dram Lest We Get Dry
EXTD=
EXTT0=
EXTT1=
EXTT2=
EXTT3=
EXTT4=
EXTT5=
EXTT6=
EXTT7=
EXTT8=
EXTT9=
EXTT10=
EXTT11=
PLAYORDER=
